<svg width="64" height="64" viewBox="0 0 64 64" fill="none" xmlns="http://www.w3.org/2000/svg">
    <circle cx="32" cy="32" r="32" fill="#D9D9D9"/>
    <mask id="mask0_149_1281" style="mask-type:luminance" maskUnits="userSpaceOnUse" x="7" y="5" width="50" height="56">
        <path d="M31.5972 60.2408C45.1282 60.2408 56.0972 47.9286 56.0972 32.7408C56.0972 17.553 45.1282 5.2408 31.5972 5.2408C18.0662 5.2408 7.0972 17.553 7.0972 32.7408C7.0972 47.9286 18.0662 60.2408 31.5972 60.2408Z" fill="white"/>
    </mask>
    <g mask="url(#mask0_149_1281)">
        <g style="mix-blend-mode:screen" opacity="0.24">
            <path d="M31.5972 60.2407C45.1282 60.2407 56.0972 47.9285 56.0972 32.7407C56.0972 17.5529 45.1282 5.24071 31.5972 5.24071C18.0662 5.24071 7.0972 17.5529 7.0972 32.7407C7.0972 47.9285 18.0662 60.2407 31.5972 60.2407Z" fill="white"/>
        </g>
        <g style="mix-blend-mode:color-burn" opacity="0.04">
            <path fill-rule="evenodd" clip-rule="evenodd" d="M9.72228 8.18672C7.78931 8.18672 6.22231 9.94567 6.22231 12.1153C6.22231 14.2851 7.78932 16.0439 9.72228 16.0439H15.8474C17.7803 16.0439 19.3473 14.2851 19.3473 12.1153C19.3473 9.94567 17.7803 8.18672 15.8474 8.18672H9.72228ZM41.2223 23.9017C39.2893 23.9017 37.7223 25.6605 37.7223 27.8303C37.7223 29.9999 39.2893 31.7588 41.2223 31.7588H62.2223C64.1553 31.7588 65.7223 29.9999 65.7223 27.8303C65.7223 25.6605 64.1553 23.9017 62.2223 23.9017H41.2223ZM31.5973 51.4014C31.5973 49.2317 33.1643 47.4728 35.0973 47.4728H56.0974C58.0303 47.4728 59.5973 49.2317 59.5973 51.4014C59.5973 53.5711 58.0303 55.33 56.0974 55.33H35.0973C33.1644 55.33 31.5973 53.5711 31.5973 51.4014ZM8.84723 39.6158C6.91425 39.6158 5.34725 41.3746 5.34725 43.5444C5.34725 45.714 6.91425 47.473 8.84723 47.473H22.8472C24.7803 47.473 26.3473 45.714 26.3473 43.5444C26.3473 41.3746 24.7803 39.6158 22.8472 39.6158H8.84723ZM3.59727 30.7762C3.59727 29.6913 4.38078 28.8119 5.34727 28.8119H13.2223C14.1888 28.8119 14.9723 29.6913 14.9723 30.7762C14.9723 31.8611 14.1888 32.7405 13.2223 32.7405H5.34727C4.38078 32.7405 3.59727 31.8611 3.59727 30.7762ZM5.34727 19.9728C4.38078 19.9728 3.59727 20.8522 3.59727 21.9371C3.59727 23.022 4.38078 23.9014 5.34728 23.9014H29.8473C30.8138 23.9014 31.5973 23.022 31.5973 21.9371C31.5973 20.8522 30.8138 19.9728 29.8473 19.9728H5.34727ZM26.3473 10.151C26.3473 9.06624 27.1308 8.18672 28.0973 8.18672H52.5973C53.5638 8.18672 54.3473 9.06624 54.3473 10.151C54.3473 11.2359 53.5638 12.1153 52.5973 12.1153H28.0973C27.1308 12.1153 26.3473 11.2359 26.3473 10.151ZM1.84732 53.3658C0.880824 53.3658 0.0973206 54.2452 0.0973206 55.3301C0.0973206 56.4149 0.880827 57.2944 1.84733 57.2944H26.3473C27.3139 57.2944 28.0974 56.4149 28.0974 55.3301C28.0974 54.2452 27.3139 53.3658 26.3473 53.3658H1.84732ZM37.7223 18.0089C37.7223 16.924 38.5058 16.0446 39.4723 16.0446H63.9723C64.9388 16.0446 65.7223 16.924 65.7223 18.0089C65.7223 19.0937 64.9388 19.9732 63.9723 19.9732H39.4723C38.5058 19.9732 37.7223 19.0937 37.7223 18.0089ZM34.6891 35.6869C33.2715 35.6869 32.1224 36.9768 32.1224 38.5678C32.1224 40.159 33.2715 41.4488 34.6891 41.4488H55.9225C57.34 41.4488 58.4891 40.159 58.4891 38.5678C58.4891 36.9768 57.34 35.6869 55.9225 35.6869H34.6891Z" fill="black"/>
        </g>
    </g>
    <path fill-rule="evenodd" clip-rule="evenodd" d="M24.1878 23.463L39.0064 32.0186L23.3213 59.1861C22.19 61.1455 19.3793 61.1951 18.1796 59.2767L15.6891 55.2942L10.9949 55.1286C8.7337 55.0489 7.3713 52.59 8.5026 50.6305L24.1878 23.463Z" fill="black" fill-opacity="0.25"/>
    <mask id="mask1_149_1281" style="mask-type:luminance" maskUnits="userSpaceOnUse" x="8" y="23" width="32" height="38">
        <path fill-rule="evenodd" clip-rule="evenodd" d="M24.1878 23.463L39.0064 32.0186L23.3213 59.1861C22.19 61.1455 19.3793 61.1951 18.1796 59.2767L15.6891 55.2942L10.9949 55.1286C8.7337 55.0489 7.3713 52.59 8.5026 50.6305L24.1878 23.463Z" fill="white"/>
    </mask>
    <g mask="url(#mask1_149_1281)">
        <path fill-rule="evenodd" clip-rule="evenodd" d="M19.3369 40.4205L26.7463 44.6983L17.1213 61.3693L9.71188 57.0915L19.3369 40.4205Z" fill="#D9D9D9"/>
    </g>
    <path fill-rule="evenodd" clip-rule="evenodd" d="M39.0065 23.463L24.1878 32.0186L39.873 59.1861C41.0043 61.1455 43.8149 61.1951 45.0146 59.2767L47.5052 55.2942L52.1993 55.1286C54.4606 55.0489 55.823 52.59 54.6916 50.6305L39.0065 23.463Z" fill="black" fill-opacity="0.25"/>
    <mask id="mask2_149_1281" style="mask-type:luminance" maskUnits="userSpaceOnUse" x="24" y="23" width="32" height="38">
        <path fill-rule="evenodd" clip-rule="evenodd" d="M39.0065 23.463L24.1878 32.0186L39.873 59.1861C41.0043 61.1455 43.8149 61.1951 45.0146 59.2767L47.5052 55.2942L52.1993 55.1286C54.4606 55.0489 55.823 52.59 54.6916 50.6305L39.0065 23.463Z" fill="white"/>
    </mask>
    <g mask="url(#mask2_149_1281)">
        <path fill-rule="evenodd" clip-rule="evenodd" d="M43.8575 40.4205L36.4482 44.6983L46.0732 61.3693L53.4825 57.0915L43.8575 40.4205Z" fill="#D9D9D9"/>
    </g>
    <path fill-rule="evenodd" clip-rule="evenodd" d="M50.8472 14.7997C50.8472 13.573 51.5941 12.4699 52.733 12.0143L53.7259 11.6171C54.9083 11.1442 56.1944 12.0149 56.1944 13.2884V26.7792C56.1944 28.0059 55.4476 29.109 54.3086 29.5646L50.8472 30.9492V14.7997Z" fill="black" fill-opacity="0.25"/>
    <path fill-rule="evenodd" clip-rule="evenodd" d="M12.3473 14.7997C12.3473 13.573 11.6004 12.4699 10.4614 12.0143L9.4685 11.6171C8.2862 11.1442 7 12.0149 7 13.2884V26.7792C7 28.0059 7.7469 29.109 8.8859 29.5646L12.3473 30.9492V14.7997Z" fill="black" fill-opacity="0.25"/>
    <path fill-rule="evenodd" clip-rule="evenodd" d="M45.5 10.4138C45.5 8.3954 43.5469 6.9529 41.6178 7.5465L31.5973 10.6297L21.5767 7.5465C19.6476 6.9529 17.6945 8.3954 17.6945 10.4138V21.5325C17.6945 23.1893 19.0376 24.5325 20.6945 24.5325H42.5C44.1569 24.5325 45.5 23.1893 45.5 21.5325V10.4138Z" fill="black" fill-opacity="0.25"/>
    <path fill-rule="evenodd" clip-rule="evenodd" d="M25.5973 6.6077C29.3101 4.4641 33.8844 4.4641 37.5973 6.6077L46.8991 11.9781C50.6119 14.1217 52.8991 18.0832 52.8991 22.3704V33.1112C52.8991 37.3984 50.6119 41.3599 46.8991 43.5035L37.5973 48.8739C33.8844 51.0175 29.3101 51.0175 25.5973 48.8739L16.2954 43.5035C12.5826 41.3599 10.2954 37.3984 10.2954 33.1112V22.3704C10.2954 18.0832 12.5826 14.1217 16.2954 11.9781L25.5973 6.6077Z" fill="black" fill-opacity="0.36"/>
    <path fill-rule="evenodd" clip-rule="evenodd" d="M28.5972 12.3617C30.4536 11.2899 32.7408 11.2899 34.5972 12.3617L43.4159 17.4532C45.2723 18.525 46.4159 20.5057 46.4159 22.6493V32.8322C46.4159 34.9758 45.2723 36.9566 43.4159 38.0284L34.5972 43.1198C32.7408 44.1916 30.4536 44.1916 28.5972 43.1198L19.7786 38.0284C17.9222 36.9566 16.7786 34.9758 16.7786 32.8322V22.6493C16.7786 20.5057 17.9222 18.525 19.7786 17.4532L28.5972 12.3617Z" fill="#DADADA"/>
    <path fill-rule="evenodd" clip-rule="evenodd" d="M31.5972 33.5158L30.0641 34.061C28.0781 34.7672 26.0022 33.2589 26.0601 31.1519L26.1048 29.5254L25.1126 28.2358C23.8272 26.5652 24.6202 24.1248 26.642 23.5288L28.2027 23.0687L29.1226 21.7266C30.3142 19.9878 32.8802 19.9878 34.0718 21.7266L34.9917 23.0687L36.5524 23.5288C38.5742 24.1248 39.3672 26.5652 38.0818 28.2358L37.0895 29.5254L37.1343 31.1519C37.1922 33.2589 35.1163 34.7672 33.1303 34.061L31.5972 33.5158Z" fill="black" fill-opacity="0.25" stroke="white" stroke-width="6" stroke-linecap="round" stroke-linejoin="round"/>
</svg>
